<svg width="54" height="54" viewBox="0 0 54 54" fill="none" xmlns="http://www.w3.org/2000/svg">
<g clip-path="url(#clip0_0_44)">
<path d="M14.0332 40.5844C14.2436 40.6545 14.4381 40.7655 14.6056 40.9108C14.773 41.0562 14.9102 41.2331 15.0093 41.4315C15.1083 41.6299 15.1673 41.8459 15.1828 42.0671C15.1983 42.2884 15.1701 42.5105 15.0997 42.7208L13.4122 47.7833C13.2586 48.1918 12.9526 48.5249 12.5586 48.7127C12.1646 48.9004 11.7132 48.9282 11.2991 48.7902C10.885 48.6521 10.5405 48.3591 10.338 47.9724C10.1354 47.5858 10.0905 47.1358 10.2127 46.7168L11.9002 41.6543C12.0412 41.2296 12.3452 40.8783 12.7452 40.6776C13.1452 40.477 13.6085 40.4434 14.0332 40.5844ZM24.1582 40.5844C24.3686 40.6545 24.5631 40.7655 24.7306 40.9108C24.898 41.0562 25.0352 41.2331 25.1343 41.4315C25.2333 41.6299 25.2923 41.8459 25.3078 42.0671C25.3233 42.2884 25.2951 42.5105 25.2247 42.7208L21.8497 52.8458C21.6961 53.2543 21.3901 53.5874 20.9961 53.7752C20.6021 53.9629 20.1507 53.9907 19.7366 53.8527C19.3225 53.7146 18.978 53.4216 18.7755 53.0349C18.5729 52.6483 18.528 52.1983 18.6502 51.7793L22.0252 41.6543C22.1662 41.2296 22.4702 40.8783 22.8702 40.6776C23.2702 40.477 23.7335 40.4434 24.1582 40.5844ZM34.2832 40.5844C34.4936 40.6545 34.6881 40.7655 34.8556 40.9108C35.023 41.0562 35.1602 41.2331 35.2593 41.4315C35.3583 41.6299 35.4173 41.8459 35.4328 42.0671C35.4483 42.2884 35.4201 42.5105 35.3497 42.7208L33.6622 47.7833C33.5086 48.1918 33.2026 48.5249 32.8086 48.7127C32.4146 48.9004 31.9632 48.9282 31.5491 48.7902C31.135 48.6521 30.7905 48.3591 30.588 47.9724C30.3854 47.5858 30.3405 47.1358 30.4627 46.7168L32.1502 41.6543C32.2912 41.2296 32.5952 40.8783 32.9952 40.6776C33.3952 40.477 33.8585 40.4434 34.2832 40.5844ZM44.4082 40.5844C44.6186 40.6545 44.8131 40.7655 44.9806 40.9108C45.148 41.0562 45.2852 41.2331 45.3843 41.4315C45.4833 41.6299 45.5423 41.8459 45.5578 42.0671C45.5733 42.2884 45.5451 42.5105 45.4747 42.7208L42.0997 52.8458C42.0362 53.0637 41.9293 53.2665 41.7855 53.4422C41.6417 53.6178 41.464 53.7627 41.2629 53.868C41.0618 53.9734 40.8416 54.0371 40.6153 54.0553C40.3891 54.0735 40.1614 54.0459 39.9461 53.9742C39.7308 53.9024 39.5321 53.7879 39.362 53.6375C39.192 53.4872 39.054 53.3041 38.9563 53.0992C38.8587 52.8942 38.8034 52.6717 38.7938 52.4449C38.7841 52.2181 38.8203 51.9917 38.9002 51.7793L42.2752 41.6543C42.4162 41.2296 42.7202 40.8783 43.1202 40.6776C43.5202 40.477 43.9835 40.4434 44.4082 40.5844ZM45.2419 16.9661C44.541 13.4331 42.7282 10.2168 40.0687 7.78775C37.4091 5.35866 34.0422 3.84409 30.4602 3.46549C26.8782 3.08689 23.269 3.86413 20.1604 5.68355C17.0518 7.50297 14.6067 10.2691 13.1827 13.5776C11.5858 13.3937 9.96814 13.5376 8.42877 14.0005C6.8894 14.4635 5.46072 15.2358 4.2302 16.2701C2.99968 17.3045 1.99322 18.5791 1.27243 20.0159C0.551645 21.4527 0.131705 23.0215 0.0383216 24.6263C-0.0550619 26.2311 0.180076 27.838 0.729339 29.3488C1.2786 30.8595 2.13043 32.2422 3.23267 33.4123C4.33492 34.5824 5.66438 35.5152 7.13966 36.1535C8.61494 36.7919 10.205 37.1225 11.8125 37.125H43.875C46.4437 37.1279 48.9176 36.1544 50.7954 34.4016C52.6732 32.6488 53.8146 30.2478 53.9884 27.685C54.1621 25.1221 53.3553 22.589 51.7313 20.5988C50.1073 18.6085 47.7875 17.31 45.2419 16.9661ZM28.6875 6.75001C32.0083 6.74932 35.2129 7.97267 37.6885 10.1861C40.1641 12.3996 41.737 15.4479 42.1065 18.7481C42.1524 19.1628 42.3502 19.5457 42.6618 19.8231C42.9735 20.1005 43.3768 20.2525 43.794 20.25H43.875C45.6652 20.25 47.3821 20.9612 48.648 22.227C49.9138 23.4929 50.625 25.2098 50.625 27C50.625 28.7902 49.9138 30.5071 48.648 31.773C47.3821 33.0389 45.6652 33.75 43.875 33.75H11.8125C10.618 33.7494 9.43722 33.4952 8.34831 33.0042C7.25939 32.5132 6.28715 31.7965 5.49588 30.9017C4.70462 30.0069 4.11238 28.9542 3.75833 27.8134C3.40428 26.6726 3.29649 25.4696 3.4421 24.284C3.58772 23.0984 3.9834 21.9572 4.60299 20.936C5.22258 19.9147 6.05195 19.0367 7.03624 18.3599C8.02052 17.6831 9.13729 17.2231 10.3127 17.0101C11.488 16.7972 12.6952 16.8363 13.8544 17.1248C14.2679 17.2279 14.7051 17.1708 15.0783 16.9648C15.4514 16.7588 15.7328 16.4193 15.8659 16.0144C16.7578 13.3184 18.4768 10.972 20.7786 9.30887C23.0803 7.64571 25.8477 6.75035 28.6875 6.75001Z" fill="white"/>
</g>
<defs>
<clipPath id="clip0_0_44">
<rect width="54" height="54" fill="white"/>
</clipPath>
</defs>
</svg>
