<svg width="32" height="20" viewBox="0 0 32 20" fill="none" xmlns="http://www.w3.org/2000/svg">
<path d="M26.2502 8.89344C25.9928 6.64134 24.9551 4.54097 23.3072 2.9367C21.6592 1.33242 19.4989 0.319434 17.1803 0.0638208C14.8617 -0.191792 12.5224 0.325135 10.5461 1.52985C8.56973 2.73457 7.07353 4.55559 6.3028 6.69434C4.53668 6.83472 2.89493 7.63303 1.72122 8.92218C0.54751 10.2113 -0.0671757 11.8914 0.00583251 13.6106C0.0788407 15.3299 0.833883 16.9551 2.11291 18.146C3.39194 19.3369 5.09579 20.0013 6.86782 20H26.3119C27.8287 19.992 29.28 19.3993 30.3467 18.3523C31.4134 17.3052 32.0081 15.8896 31.9999 14.4167C31.9917 12.9439 31.3814 11.5346 30.3031 10.4988C29.2248 9.46294 27.7669 8.88549 26.2502 8.89344Z" fill="#FEFFFF"/>
</svg>
