<svg width="95" height="95" viewBox="0 0 95 95" fill="none" xmlns="http://www.w3.org/2000/svg">
<path d="M47.5 4.94791C49.1396 4.94791 50.4688 6.27706 50.4688 7.91666V11.875C50.4688 13.5146 49.1396 14.8437 47.5 14.8437C45.8604 14.8437 44.5313 13.5146 44.5313 11.875V7.91666C44.5313 6.27706 45.8604 4.94791 47.5 4.94791Z" fill="white"/>
<path fill-rule="evenodd" clip-rule="evenodd" d="M24.7396 47.5C24.7396 34.9298 34.9298 24.7396 47.5 24.7396C60.0703 24.7396 70.2604 34.9298 70.2604 47.5C70.2604 60.0702 60.0703 70.2604 47.5 70.2604C34.9298 70.2604 24.7396 60.0702 24.7396 47.5ZM47.5 30.6771C38.209 30.6771 30.6771 38.2089 30.6771 47.5C30.6771 56.791 38.209 64.3229 47.5 64.3229C56.7911 64.3229 64.3229 56.791 64.3229 47.5C64.3229 38.2089 56.7911 30.6771 47.5 30.6771Z" fill="white"/>
<path d="M21.6097 17.4112C20.4503 16.2518 18.5706 16.2518 17.4112 17.4112C16.2518 18.5706 16.2518 20.4503 17.4112 21.6097L20.2102 24.4086C21.3695 25.568 23.2493 25.568 24.4086 24.4086C25.568 23.2493 25.568 21.3695 24.4086 20.2102L21.6097 17.4112Z" fill="white"/>
<path d="M90.0521 47.5C90.0521 49.1396 88.7229 50.4687 87.0834 50.4687H83.125C81.4854 50.4687 80.1563 49.1396 80.1563 47.5C80.1563 45.8604 81.4854 44.5312 83.125 44.5312H87.0834C88.7229 44.5312 90.0521 45.8604 90.0521 47.5Z" fill="white"/>
<path d="M77.5888 21.6096C78.7482 20.4503 78.7482 18.5705 77.5888 17.4112C76.4294 16.2518 74.5497 16.2518 73.3903 17.4112L70.5914 20.2101C69.432 21.3695 69.432 23.2492 70.5914 24.4086C71.7508 25.568 73.6305 25.568 74.7898 24.4086L77.5888 21.6096Z" fill="white"/>
<path d="M47.5 80.1562C49.1396 80.1562 50.4688 81.4854 50.4688 83.125V87.0833C50.4688 88.7229 49.1396 90.0521 47.5 90.0521C45.8604 90.0521 44.5313 88.7229 44.5313 87.0833V83.125C44.5313 81.4854 45.8604 80.1562 47.5 80.1562Z" fill="white"/>
<path d="M74.7901 70.5914C73.6307 69.432 71.751 69.432 70.5917 70.5914C69.4323 71.7508 69.4323 73.6305 70.5917 74.7899L73.3906 77.5888C74.55 78.7482 76.4297 78.7482 77.5891 77.5888C78.7484 76.4295 78.7484 74.5497 77.5891 73.3904L74.7901 70.5914Z" fill="white"/>
<path d="M14.8438 47.5C14.8438 49.1396 13.5146 50.4687 11.875 50.4687H7.91669C6.27709 50.4687 4.94794 49.1396 4.94794 47.5C4.94794 45.8604 6.27709 44.5312 7.91669 44.5312H11.875C13.5146 44.5312 14.8438 45.8604 14.8438 47.5Z" fill="white"/>
<path d="M24.4084 74.7898C25.5677 73.6305 25.5677 71.7507 24.4084 70.5914C23.249 69.432 21.3693 69.432 20.2099 70.5914L17.4109 73.3903C16.2516 74.5497 16.2516 76.4294 17.4109 77.5888C18.5703 78.7482 20.45 78.7482 21.6094 77.5888L24.4084 74.7898Z" fill="white"/>
</svg>
