<svg width="32" height="21" viewBox="0 0 32 21" fill="none" xmlns="http://www.w3.org/2000/svg">
<path d="M30.6656 18.9548H1.33455C0.597687 18.9548 0 19.4127 0 19.9774C0 20.5421 0.597673 21 1.33483 21H30.6652C31.4023 21 32 20.5422 32 19.9774C31.9997 19.4127 31.4025 18.9548 30.6656 18.9548Z" fill="white"/>
<path d="M7.39612 10.0908C7.73769 10.0908 8.07953 9.99108 8.33976 9.79108C8.86107 9.39172 8.86107 8.74421 8.33976 8.34505L6.93796 7.27114C6.41666 6.87178 5.57145 6.87178 5.0504 7.27114C4.5291 7.67051 4.5291 8.31801 5.0504 8.71718L6.4522 9.79108C6.71299 9.99108 7.05456 10.0908 7.39612 10.0908Z" fill="#FFD200"/>
<path d="M26.9506 8.7175C27.4719 8.31814 27.4719 7.67063 26.9506 7.27147C26.4293 6.8721 25.5847 6.87189 25.063 7.27147L23.6612 8.34537C23.1399 8.74473 23.1399 9.39224 23.6612 9.7914C23.9218 9.99098 24.2633 10.0911 24.6049 10.0911C24.9464 10.0911 25.288 9.9914 25.5485 9.7914L26.9506 8.7175Z" fill="#FFD200"/>
<path d="M0.514465 15.6606C0.514465 16.2253 1.11214 16.6832 1.84929 16.6832H3.83198C4.56912 16.6832 5.16681 16.2253 5.16681 15.6606C5.16681 15.0959 4.56914 14.638 3.83198 14.638H1.84901C1.11215 14.6378 0.514465 15.0957 0.514465 15.6606Z" fill="#FFD200"/>
<path d="M28.1687 16.683H30.1514C30.8885 16.683 31.4862 16.2251 31.4862 15.6604C31.4862 15.0957 30.8885 14.6378 30.1514 14.6378H28.1687C27.4315 14.6378 26.8339 15.0957 26.8339 15.6604C26.8339 16.2251 27.4315 16.683 28.1687 16.683Z" fill="#FFD200"/>
<path d="M23.6026 16.1737H24.9374C24.9374 12.3986 20.9282 9.32739 16.0007 9.32739C11.0732 9.32739 7.06396 12.3988 7.06396 16.1737H23.6026Z" fill="#FFD300"/>
<path d="M16.0005 1V7.10622M16.0005 7.10622L19.1887 4.66373M16.0005 7.10622L12.8122 4.66373" stroke="white" stroke-width="2" stroke-linecap="round"/>
</svg>
